General
Unique ID                                : 258222801961315643768877331514612235887 (0xC243E714DCD03AF54AC7B317D997BE6F)
Complete name                            : Versailles - DESTINY -The Lovers- [PAL DVD 480p PCM MPEG-2 REMUX-SEKAI].mkv
Format                                   : Matroska
Format version                           : Version 4
File size                                : 441 MiB
Duration                                 : 6 min 22 s
Overall bit rate mode                    : Constant
Overall bit rate                         : 9 675 kb/s
Frame rate                               : 29.970 FPS
Title                                    : Versailles - DESTINY -The Lovers- [PAL DVD 480p PCM MPEG-2 REMUX-SEKAI]
Encoded date                             : 2025-08-21 11:50:24 UTC
Writing application                      : mkvmerge 94.0 ('Initiate') 64-bit
Writing library                          : libebml v1.4.5 + libmatroska v1.7.1
Website                                  : https://sekai-archivist.blogspot.com/

Video
ID                                       : 1
Format                                   : MPEG Video
Format version                           : Version 2
Format profile                           : Main@Main
Format settings                          : BVOP
Format settings, BVOP                    : Yes
Format settings, Matrix                  : Default
Format settings, GOP                     : M=2, N=13
Format settings, picture structure       : Frame
Codec ID                                 : V_MPEG2
Codec ID/Info                            : MPEG 1 or 2 Video
Duration                                 : 6 min 22 s
Bit rate mode                            : Constant
Bit rate                                 : 8 200 kb/s
Width                                    : 720 pixels
Height                                   : 480 pixels
Display aspect ratio                     : 4:3
Frame rate mode                          : Constant
Frame rate                               : 29.970 (30000/1001) FPS
Standard                                 : NTSC
Color space                              : YUV
Chroma subsampling                       : 4:2:0
Bit depth                                : 8 bits
Scan type                                : Interlaced
Scan order                               : Top Field First
Compression mode                         : Lossy
Bits/(Pixel*Frame)                       : 0.792
Time code of first frame                 : 00:59:59:15
Time code source                         : Group of pictures header
GOP, Open/Closed                         : Open
Stream size                              : 374 MiB (85%)
Language                                 : Japanese
Default                                  : Yes
Forced                                   : No
Color primaries                          : BT.601 NTSC
Transfer characteristics                 : BT.601
Matrix coefficients                      : BT.601

Audio
ID                                       : 2
Format                                   : PCM
Format settings                          : Little / Signed
Codec ID                                 : A_PCM/INT/LIT
Duration                                 : 6 min 8 s
Bit rate mode                            : Constant
Bit rate                                 : 1 536 kb/s
Channel(s)                               : 2 channels
Sampling rate                            : 48.0 kHz
Frame rate                               : 25.001 FPS (1920 SPF)
Bit depth                                : 16 bits
Stream size                              : 67.5 MiB (15%)
Language                                 : Japanese
Default                                  : Yes
Forced                                   : No


